#Comment line ignore any data following # character 
#Hierarchical Translation and Rotation (.htr) file 
[Header]	
#Header keywords are followed by a single value 
FileType HTR		#Single word string
DataType HTRS		#Translation followed by rotation and scale data
FileVersion 1		#integer
NumSegments 64		#integer
NumFrames 3		#integer
DataFrameRate 30		#integer, data frame rate in this file
EulerRotationOrder ZYX
CalibrationUnits mm
RotationUnits Degrees
GlobalAxisofGravity Y
BoneLengthAxis Y
ScaleFactor 1.00
[SegmentNames&Hierarchy]
#CHILD	PARENT
Pinger_Root GLOBAL
Pelvis Pinger_Root
L_Hip Pelvis
R_Hip Pelvis
Rear_Leg01 Pelvis
Spine1 Pelvis
L_Leg01 L_Hip
L_Leg02 L_Leg01
L_Leg03 L_Leg02
L_Foot L_Leg03
L_Toe1_01 L_Foot
L_Toe2_01 L_Foot
L_Toe3_01 L_Foot
planeAlignerLeft L_Foot
L_Toe1_02 L_Toe1_01
L_Toe1_03 L_Toe1_02
L_Toe2_02 L_Toe2_01
L_Toe2_03 L_Toe2_02
L_Toe3_02 L_Toe3_01
L_Toe3_03 L_Toe3_02
planeLockWeightLeft planeAlignerLeft
R_Leg01 R_Hip
R_Leg02 R_Leg01
R_Leg03 R_Leg02
R_Foot R_Leg03
planeAlignerRight R_Foot
R_Toe1_01 R_Foot
R_Toe2_01 R_Foot
R_Toe3_01 R_Foot
planeLockWeightRight planeAlignerRight
R_Toe1_02 R_Toe1_01
R_Toe1_03 R_Toe1_02
R_Toe2_02 R_Toe2_01
R_Toe2_03 R_Toe2_02
R_Toe3_02 R_Toe3_01
R_Toe3_03 R_Toe3_02
Rear_Leg02 Rear_Leg01
Rear_Leg03 Rear_Leg02
Rear_Leg04 Rear_Leg03
Rear_Foot Rear_Leg04
planeAlignerCenter Rear_Foot
Rear_Toe1_01 Rear_Foot
Rear_Toe2_01 Rear_Foot
Rear_Toe3_01 Rear_Foot
planeLockWeightCenter planeAlignerCenter
Rear_Toe1_02 Rear_Toe1_01
Rear_Toe1_03 Rear_Toe1_02
Rear_Toe2_02 Rear_Toe2_01
Rear_Toe2_03 Rear_Toe2_02
Rear_Toe3_02 Rear_Toe3_01
Rear_Toe3_03 Rear_Toe3_02
Back_Bone Spine1
Head Spine1
Motor_Bone Back_Bone
Ping_Mechanism Back_Bone
BN_LookIK Head
bottomMouth Head
L_Mouth01 Head
L_mouthFront Head
mouthGun Head
R_Mouth01 Head
R_mouthFront Head
TopMouth Head
weapon_bone Head
[BasePosition]
#SegmentName Tx, Ty, Tz, Rx, Ry, Rz, BoneLength
Pinger_Root 0.000000 0.000000 0.000000 -90.000000 0.000000 0.000000 10.000000 
Pelvis 0.000000 0.000000 0.000000 0.000000 0.000000 0.000000 10.000000 
L_Hip 0.000000 0.000000 0.000000 0.000000 0.000000 0.000000 10.000000 
R_Hip 0.000000 0.000000 0.000000 0.000000 0.000000 0.000000 10.000000 
Rear_Leg01 0.000000 0.000000 0.000000 0.000000 0.000000 0.000000 10.000000 
Spine1 0.000000 0.000000 0.000000 0.000000 0.000000 0.000000 10.000000 
L_Leg01 0.000000 0.000000 0.000000 0.000000 0.000000 0.000000 10.000000 
L_Leg02 0.000000 0.000000 0.000000 0.000000 0.000000 0.000000 10.000000 
L_Leg03 0.000000 0.000000 0.000000 0.000000 0.000000 0.000000 10.000000 
L_Foot 0.000000 0.000000 0.000000 0.000000 0.000000 0.000000 10.000000 
L_Toe1_01 0.000000 0.000000 0.000000 0.000000 0.000000 0.000000 10.000000 
L_Toe2_01 0.000000 0.000000 0.000000 0.000000 0.000000 0.000000 10.000000 
L_Toe3_01 0.000000 0.000000 0.000000 0.000000 0.000000 0.000000 10.000000 
planeAlignerLeft 0.000000 0.000000 0.000000 0.000000 0.000000 0.000000 10.000000 
L_Toe1_02 0.000000 0.000000 0.000000 0.000000 0.000000 0.000000 10.000000 
L_Toe1_03 0.000000 0.000000 0.000000 0.000000 0.000000 0.000000 10.000000 
L_Toe2_02 0.000000 0.000000 0.000000 0.000000 0.000000 0.000000 10.000000 
L_Toe2_03 0.000000 0.000000 0.000000 0.000000 0.000000 0.000000 10.000000 
L_Toe3_02 0.000000 0.000000 0.000000 0.000000 0.000000 0.000000 10.000000 
L_Toe3_03 0.000000 0.000000 0.000000 0.000000 0.000000 0.000000 10.000000 
planeLockWeightLeft 0.000000 0.000000 0.000000 0.000000 0.000000 0.000000 10.000000 
R_Leg01 0.000000 0.000000 0.000000 0.000000 0.000000 0.000000 10.000000 
R_Leg02 0.000000 0.000000 0.000000 0.000000 0.000000 0.000000 10.000000 
R_Leg03 0.000000 0.000000 0.000000 0.000000 0.000000 0.000000 10.000000 
R_Foot 0.000000 0.000000 0.000000 0.000000 0.000000 0.000000 10.000000 
planeAlignerRight 0.000000 0.000000 0.000000 0.000000 0.000000 0.000000 10.000000 
R_Toe1_01 0.000000 0.000000 0.000000 0.000000 0.000000 0.000000 10.000000 
R_Toe2_01 0.000000 0.000000 0.000000 0.000000 0.000000 0.000000 10.000000 
R_Toe3_01 0.000000 0.000000 0.000000 0.000000 0.000000 0.000000 10.000000 
planeLockWeightRight 0.000000 0.000000 0.000000 0.000000 0.000000 0.000000 10.000000 
R_Toe1_02 0.000000 0.000000 0.000000 0.000000 0.000000 0.000000 10.000000 
R_Toe1_03 0.000000 0.000000 0.000000 0.000000 0.000000 0.000000 10.000000 
R_Toe2_02 0.000000 0.000000 0.000000 0.000000 0.000000 0.000000 10.000000 
R_Toe2_03 0.000000 0.000000 0.000000 0.000000 0.000000 0.000000 10.000000 
R_Toe3_02 0.000000 0.000000 0.000000 0.000000 0.000000 0.000000 10.000000 
R_Toe3_03 0.000000 0.000000 0.000000 0.000000 0.000000 0.000000 10.000000 
Rear_Leg02 0.000000 0.000000 0.000000 0.000000 0.000000 0.000000 10.000000 
Rear_Leg03 0.000000 0.000000 0.000000 0.000000 0.000000 0.000000 10.000000 
Rear_Leg04 0.000000 0.000000 0.000000 0.000000 0.000000 0.000000 10.000000 
Rear_Foot 0.000000 0.000000 0.000000 0.000000 0.000000 0.000000 10.000000 
planeAlignerCenter 0.000000 0.000000 0.000000 0.000000 0.000000 0.000000 10.000000 
Rear_Toe1_01 0.000000 0.000000 0.000000 0.000000 0.000000 0.000000 10.000000 
Rear_Toe2_01 0.000000 0.000000 0.000000 0.000000 0.000000 0.000000 10.000000 
Rear_Toe3_01 0.000000 0.000000 0.000000 0.000000 0.000000 0.000000 10.000000 
planeLockWeightCenter 0.000000 0.000000 0.000000 0.000000 0.000000 0.000000 10.000000 
Rear_Toe1_02 0.000000 0.000000 0.000000 0.000000 0.000000 0.000000 10.000000 
Rear_Toe1_03 0.000000 0.000000 0.000000 0.000000 0.000000 0.000000 10.000000 
Rear_Toe2_02 0.000000 0.000000 0.000000 0.000000 0.000000 0.000000 10.000000 
Rear_Toe2_03 0.000000 0.000000 0.000000 0.000000 0.000000 0.000000 10.000000 
Rear_Toe3_02 0.000000 0.000000 0.000000 0.000000 0.000000 0.000000 10.000000 
Rear_Toe3_03 0.000000 0.000000 0.000000 0.000000 0.000000 0.000000 10.000000 
Back_Bone 0.000000 0.000000 0.000000 0.000000 0.000000 0.000000 10.000000 
Head 0.000000 0.000000 0.000000 0.000000 0.000000 0.000000 10.000000 
Motor_Bone 0.000000 0.000000 0.000000 0.000000 0.000000 0.000000 10.000000 
Ping_Mechanism 0.000000 0.000000 0.000000 0.000000 0.000000 0.000000 10.000000 
BN_LookIK 0.000000 0.000000 0.000000 0.000000 0.000000 0.000000 10.000000 
bottomMouth 0.000000 0.000000 0.000000 0.000000 0.000000 0.000000 10.000000 
L_Mouth01 0.000000 0.000000 0.000000 0.000000 0.000000 0.000000 10.000000 
L_mouthFront 0.000000 0.000000 0.000000 0.000000 0.000000 0.000000 10.000000 
mouthGun 0.000000 0.000000 0.000000 0.000000 0.000000 0.000000 10.000000 
R_Mouth01 0.000000 0.000000 0.000000 0.000000 0.000000 0.000000 10.000000 
R_mouthFront 0.000000 0.000000 0.000000 0.000000 0.000000 0.000000 10.000000 
TopMouth 0.000000 0.000000 0.000000 0.000000 0.000000 0.000000 10.000000 
weapon_bone 0.000000 0.000000 0.000000 0.000000 0.000000 0.000000 10.000000 
#Beginning of Data. Separated by tabs
#Fr	Tx	Ty	Tz	Rx	Ry	Rz	SF
[Pinger_Root]
49 0.000000 6222.220215 0.000000 -0.000075 -0.000000 -0.000020 6222.220703
50 0.000000 6351.849609 0.000000 -0.000075 -0.000000 -0.000020 6351.849609
51 0.000000 6481.478516 0.000000 -0.000075 -0.000000 -0.000020 6481.479004
[Pelvis]
49 529.742737 1298.968384 4955.998535 -114.128288 -70.534203 110.109299 5150.715332
50 501.452148 1319.450073 4957.952148 -109.539948 -71.273865 103.789787 5154.967285
51 461.697876 1336.653320 4964.205566 -106.962563 -71.879395 99.877525 5161.699707
[L_Hip]
49 5.766392 125.831482 872.656799 -178.250168 -81.786369 87.376007 881.701050
50 5.766392 125.831482 872.656799 -178.250168 -81.786369 87.376007 881.701050
51 5.766392 125.831482 872.656799 -178.250168 -81.786369 87.376007 881.701050
[R_Hip]
49 5.765438 125.836372 -872.654907 -1.748770 81.786041 87.376961 881.699829
50 5.765438 125.836372 -872.654907 -1.748770 81.786041 87.376961 881.699829
51 5.765438 125.836372 -872.654907 -1.748770 81.786041 87.376961 881.699829
[Rear_Leg01]
49 -192.298416 -925.602966 -0.001907 -179.353912 -10.812012 -140.122391 945.367432
50 -192.298416 -925.602966 -0.001907 -177.991257 -8.399782 -136.037064 945.367432
51 -192.298416 -925.602966 -0.001907 -179.330673 -5.966822 -136.040543 945.367432
[Spine1]
49 290.604584 5.007505 0.000477 5.736767 5.482791 10.089654 290.647736
50 290.604584 5.007505 0.000477 7.111457 3.180382 10.404674 290.647736
51 290.604584 5.007505 0.000477 8.484292 1.455642 10.858117 290.647736
[L_Leg01]
49 761.932007 -0.002384 -0.069261 52.456200 -31.398973 -47.595657 761.932068
50 761.932007 -0.002384 -0.069261 54.490116 -26.728764 -52.466309 761.932068
51 761.932007 -0.002384 -0.069261 55.406956 -24.964363 -54.491730 761.932068
[L_Leg02]
49 1441.140503 -0.000954 -0.000715 -1.272900 0.270934 -94.065468 1441.140503
50 1441.140503 -0.000954 -0.000715 -1.262293 0.239688 -91.524254 1441.140503
51 1441.140503 -0.000954 -0.000715 -1.225473 0.245505 -93.652435 1441.140503
[L_Leg03]
49 1686.963989 -0.000715 -0.000954 0.005199 -0.004398 108.668854 1686.963989
50 1686.963989 -0.000715 -0.000954 0.002314 -0.000396 109.421944 1686.963989
51 1686.963989 -0.000715 -0.000954 0.002314 -0.000394 109.337128 1686.963989
[L_Foot]
49 3041.570068 -30.715107 11.297464 -18.315237 9.189822 43.042503 3041.746094
50 3041.570068 -30.715107 11.297464 -19.063272 10.791064 44.656643 3041.746094
51 3041.570068 -30.715107 11.297464 -19.587151 12.455709 48.171665 3041.746094
[L_Toe1_01]
49 -188.216690 -224.732346 -21.137953 89.193130 -0.506438 -160.381485 293.899567
50 -188.216690 -224.732346 -21.137953 89.198517 -0.705278 -160.837631 293.899567
51 -188.216690 -224.732346 -21.137953 89.286217 -1.337790 -162.016876 293.899567
[L_Toe2_01]
49 200.746536 -219.926590 148.838394 -78.432335 -14.137962 -41.680050 332.896027
50 200.746536 -219.926590 148.838394 -78.335396 -14.202177 -41.975266 332.896027
51 200.746536 -219.926590 148.838394 -78.238052 -14.265880 -42.270695 332.896027
[L_Toe3_01]
49 188.832520 -219.859131 -191.078659 -106.078789 21.001497 -44.939529 347.140900
50 188.832520 -219.859131 -191.078659 -106.012360 20.507971 -44.898560 347.140900
51 188.832520 -219.859131 -191.078659 -105.810135 19.125618 -44.847546 347.140900
[planeAlignerLeft]
49 -126.703529 -599.544373 -25.093628 0.000000 -90.000000 -90.001900 613.299988
50 -118.210617 -600.039307 -21.214064 0.000000 -90.000000 -90.001900 611.940308
51 -96.978554 -601.287231 -11.510347 0.000000 -90.000000 -90.001900 609.166382
[L_Toe1_02]
49 413.761139 0.000477 0.000000 0.001387 -25.607019 0.001387 413.761139
50 413.761139 0.000477 0.000000 0.001389 -25.282644 0.001389 413.761139
51 413.761139 0.000477 0.000000 0.001392 -24.958258 0.001392 413.761139
[L_Toe1_03]
49 464.317322 0.000358 -0.000089 0.004796 61.670918 0.004796 464.317322
50 464.317322 0.000358 -0.000089 0.005105 63.418308 0.005105 464.317322
51 464.317322 0.000358 -0.000089 0.006014 67.492607 0.006014 464.317322
[L_Toe2_02]
49 342.235809 -0.000477 0.000238 0.004686 -80.616463 0.004686 342.235809
50 342.235809 -0.000477 0.000238 0.004687 -80.376984 0.004687 342.235809
51 342.235809 -0.000477 0.000238 0.004688 -80.137352 0.004688 342.235809
[L_Toe2_03]
49 420.210846 -0.000715 0.000000 179.991943 59.238224 179.999207 420.210846
50 420.210846 -0.000715 0.000000 -179.999557 60.465000 -179.995941 420.210846
51 420.210846 -0.000715 0.000000 -179.999283 63.586960 -179.995697 420.210846
[L_Toe3_02]
49 329.270111 0.000954 0.000000 0.004677 -83.740036 0.004677 329.270111
50 329.270111 0.000954 0.000000 0.003510 -83.492859 0.003510 329.270111
51 329.270111 0.000954 0.000000 0.002343 -83.245583 0.002343 329.270111
[L_Toe3_03]
49 439.137451 -0.001907 0.000954 179.991684 61.072819 179.998917 439.137451
50 439.137451 -0.001907 0.000954 179.991577 61.826401 179.998795 439.137451
51 439.137451 -0.001907 0.000954 179.991241 63.773273 179.998428 439.137451
[planeLockWeightLeft]
49 999.999634 0.097989 0.076277 -0.011826 -0.004376 0.005620 999.999634
50 999.999573 0.097934 0.076254 -0.011826 -0.004376 0.005620 999.999573
51 999.999573 0.097878 0.076232 -0.011826 -0.004376 0.005620 999.999573
[R_Leg01]
49 761.455627 -0.001907 -0.000358 112.770531 -31.871315 80.933380 761.455688
50 761.455627 -0.001907 -0.000358 108.311974 -30.873350 80.933334 761.455688
51 761.455627 -0.001907 -0.000358 103.814529 -28.756388 81.551773 761.455688
[R_Leg02]
49 1441.140625 0.000000 -0.000238 0.182069 -0.044247 -110.398552 1441.140625
50 1441.140625 0.000000 -0.000238 0.177531 -0.059643 -110.145432 1441.140625
51 1441.140625 0.000000 -0.000238 0.179429 -0.058532 -108.270714 1441.140625
[R_Leg03]
49 1686.963989 0.000954 0.001431 -0.035337 0.010249 100.418648 1686.963989
50 1686.963989 0.000954 0.001431 -0.037098 0.010336 100.196579 1686.963989
51 1686.963989 0.000954 0.001431 -0.038859 0.010416 99.974518 1686.963989
[R_Foot]
49 3041.560059 -30.531288 -11.204481 8.170021 -10.597528 80.691360 3041.734131
50 3041.560059 -30.531288 -11.204481 8.332217 -12.888582 81.785851 3041.734131
51 3041.560059 -30.531288 -11.204481 8.637518 -15.202898 82.415825 3041.734131
[planeAlignerRight]
49 -0.617065 -758.237427 -0.341606 0.000000 -89.960434 -90.005180 758.237732
50 -0.617676 -737.320618 -0.335121 0.000000 -89.960434 -90.005180 737.320923
51 -0.618286 -716.403748 -0.328636 0.000000 -89.960434 -90.005180 716.404053
[R_Toe1_01]
49 -188.383347 -224.864899 21.052242 90.900284 1.894439 -153.948685 294.101532
50 -188.383347 -224.864899 21.052242 90.842484 1.919887 -155.616684 294.101532
51 -188.383347 -224.864899 21.052242 90.783997 1.943630 -157.284042 294.101532
[R_Toe2_01]
49 200.637817 -220.002121 -148.787384 -104.143661 10.180812 -55.073856 332.857574
50 200.637817 -220.002121 -148.787384 -103.896622 10.520857 -53.684505 332.857574
51 200.637817 -220.002121 -148.787384 -103.641014 10.854908 -52.292130 332.857574
[R_Toe3_01]
49 188.606735 -220.092957 191.126343 -71.627754 -12.465581 -56.982391 347.192566
50 188.606735 -220.092957 191.126343 -71.931351 -12.912621 -55.589497 347.192566
51 188.606735 -220.092957 191.126343 -72.246590 -13.352317 -54.191673 347.192566
[planeLockWeightRight]
49 999.999390 0.000000 0.076248 -0.011823 -0.004379 -0.000027 999.999390
50 999.999390 0.000000 0.076257 -0.011823 -0.004379 -0.000027 999.999390
51 999.999390 0.000000 0.076267 -0.011823 -0.004379 -0.000027 999.999390
[R_Toe1_02]
49 413.762085 0.000477 -0.000119 0.001395 -24.593676 0.001395 413.762085
50 413.762085 0.000477 -0.000119 0.001397 -24.285261 0.001397 413.762085
51 413.762085 0.000477 -0.000119 0.001400 -23.976854 0.001400 413.762085
[R_Toe1_03]
49 464.317810 0.000000 0.001088 0.006752 69.966782 0.006752 464.317810
50 464.317810 0.000000 0.001088 0.007535 72.068550 0.007535 464.317810
51 464.317810 0.000000 0.001088 0.008522 74.168961 0.008522 464.317810
[R_Toe2_02]
49 342.234741 -0.000954 0.000238 0.001187 -72.825470 0.001187 342.234741
50 342.234741 -0.000954 0.000238 0.000008 -73.576614 0.000008 342.234741
51 342.234741 -0.000954 0.000238 -0.001168 -74.327789 -0.001168 342.234741
[R_Toe2_03]
49 420.210846 0.000715 -0.000268 0.040361 86.667274 0.040361 420.210846
50 420.210846 0.000715 -0.000268 0.038399 89.085075 0.036650 420.210846
51 420.210846 0.000715 -0.000268 -179.954437 88.496628 -179.957932 420.210846
[R_Toe3_02]
49 329.270355 -0.000477 -0.000954 0.001181 -76.957657 0.001181 329.270355
50 329.270355 -0.000477 -0.000954 0.001180 -77.728462 0.001180 329.270355
51 329.270355 -0.000477 -0.000954 0.001180 -78.499199 0.001180 329.270355
[R_Toe3_03]
49 439.137939 0.000238 0.001431 0.000000 89.909348 0.003496 439.137939
50 439.137939 0.000238 0.001431 -179.971069 87.851967 -179.967575 439.137939
51 439.137939 0.000238 0.001431 -179.986710 85.618004 -179.983215 439.137939
[Rear_Leg02]
49 1162.777710 -0.029802 0.005960 1.584007 -34.549206 -70.318573 1162.777710
50 1162.777710 -0.029802 0.005960 5.028769 -34.018242 -70.904137 1162.777710
51 1162.777710 -0.029802 0.005960 14.080518 -31.001095 -83.074501 1162.777710
[Rear_Leg03]
49 607.192505 -0.013351 -0.073195 0.006530 -0.001934 61.210556 607.192505
50 607.192505 -0.013351 -0.073195 0.006494 -0.002051 63.261406 607.192505
51 607.192505 -0.013351 -0.073195 0.010476 -0.005139 68.614487 607.192505
[Rear_Leg04]
49 995.874512 -0.020504 -0.011921 -0.039683 -0.017226 52.342861 995.874573
50 995.874512 -0.020504 -0.011921 -0.040241 -0.015879 56.205479 995.874573
51 995.874512 -0.020504 -0.011921 -0.040199 -0.018788 67.260681 995.874573
[Rear_Foot]
49 3096.176270 -0.067472 -0.041425 -107.778358 53.696941 55.422539 3096.176270
50 3096.176270 -0.067472 -0.041425 -103.491791 54.577404 55.500828 3096.176270
51 3096.176270 -0.067472 -0.041425 -99.659119 55.664738 53.417122 3096.176270
[planeAlignerCenter]
49 -12.631223 139.992905 -764.965515 0.000009 0.000003 -179.999985 777.772400
50 -13.681125 150.932861 -766.744019 0.000009 0.000003 -179.999985 781.578064
51 -12.285870 170.840683 -766.181946 0.000009 0.000003 -179.999985 785.093811
[Rear_Toe1_01]
49 0.653352 83.966492 -371.173737 -0.723452 58.100227 89.024040 380.553192
50 0.653352 83.966492 -371.173737 0.100873 57.249969 90.048515 380.553192
51 0.653352 83.966492 -371.173737 0.106252 53.631180 90.049950 380.553192
[Rear_Toe2_01]
49 178.200760 -294.826019 -362.060547 1.516671 50.290478 -69.009087 499.765686
50 178.200760 -294.826019 -362.060547 1.678258 50.324574 -68.738663 499.765686
51 178.200760 -294.826019 -362.060547 2.669048 53.691628 -67.533195 499.765686
[Rear_Toe3_01]
49 -153.359680 -308.780914 -362.060852 -1.837898 50.286644 -113.566437 499.952881
50 -153.359680 -308.780914 -362.060852 -2.005165 50.320606 -113.863251 499.952881
51 -153.359680 -308.780914 -362.060852 -3.148366 53.680019 -115.229347 499.952881
[planeLockWeightCenter]
49 0.002384 -0.000000 0.076294 -0.011814 -0.004373 -0.000015 0.076331
50 0.000000 0.000051 0.076294 -0.011814 -0.004373 -0.000015 0.076294
51 0.000000 0.000102 0.076294 -0.011814 -0.004373 -0.000015 0.076294
[Rear_Toe1_02]
49 379.707825 0.194073 0.000477 -0.000767 -33.624729 0.000838 379.707855
50 379.707825 0.194073 0.000477 -0.000767 -33.624729 0.000838 379.707855
51 379.707825 0.194073 0.000477 -0.000767 -33.624729 0.000838 379.707855
[Rear_Toe1_03]
49 500.129700 0.165701 0.000119 -0.003953 58.806118 -0.000322 500.129761
50 500.129700 0.165701 0.000119 -0.004137 61.475044 -0.000529 500.129761
51 500.129700 0.165701 0.000119 0.007116 71.014679 0.007116 500.129761
[Rear_Toe2_02]
49 340.494507 0.000238 -0.000954 0.001175 -85.109917 0.001175 340.494507
50 340.494507 0.000238 -0.000954 0.001175 -85.492195 0.001175 340.494507
51 340.494507 0.000238 -0.000954 0.000000 -88.813042 0.000000 340.494507
[Rear_Toe2_03]
49 433.103577 0.000000 0.000238 179.984879 81.095093 179.984879 433.103546
50 433.103577 0.000000 0.000238 179.986603 79.947990 179.986603 433.103546
51 433.103577 0.000000 0.000238 -179.994858 70.330002 -179.998413 433.103546
[Rear_Toe3_02]
49 340.494141 -0.000358 -0.000477 0.001175 -84.978470 0.001175 340.494171
50 340.494141 -0.000358 -0.000477 0.001175 -85.364304 0.001175 340.494171
51 340.494141 -0.000358 -0.000477 0.001749 -88.718086 0.001749 340.494171
[Rear_Toe3_03]
49 433.103577 0.001431 -0.000238 -179.994095 81.394829 -179.990585 433.103546
50 433.103577 0.001431 -0.000238 -179.994980 80.264595 -179.991470 433.103546
51 433.103577 0.001431 -0.000238 -179.998352 70.663040 -179.994797 433.103546
[Back_Bone]
49 1312.175781 -701.934692 0.000954 -1.309868 3.152341 -85.176041 1488.125488
50 1312.175781 -701.934692 0.000954 -1.705185 3.121804 -84.850502 1488.125488
51 1312.175781 -701.934692 0.000954 -2.048518 2.815960 -84.352638 1488.125488
[Head]
49 1406.159424 809.709290 0.001431 0.331826 1.970985 4.341756 1622.625488
50 1406.159424 809.709290 0.001431 -0.100620 2.086926 4.057071 1622.625488
51 1406.159424 809.709290 0.001431 -0.533662 2.200713 3.771500 1622.625488
[Motor_Bone]
49 1158.364380 -417.834747 0.000477 -1.391430 0.000038 -105.983665 1231.419434
50 1158.364380 -417.834747 0.000477 -1.019834 2.826898 -103.158165 1231.419434
51 1158.364380 -417.834747 0.000477 -0.553477 1.344020 -104.639450 1231.419434
[Ping_Mechanism]
49 1302.617065 -466.272827 -29.482882 0.000103 -0.000053 82.120995 1383.868042
50 1301.058350 -468.296478 -18.102062 0.000103 -0.000053 82.120995 1382.889038
51 1298.140991 -469.098267 -12.369800 0.000103 -0.000053 82.120995 1380.353760
[BN_LookIK]
49 193.241119 1380.371704 -0.002861 0.000000 89.965736 -31.038179 1393.832153
50 193.241119 1380.371704 -0.002861 0.000000 89.965736 -31.038179 1393.832153
51 193.241119 1380.371704 -0.002861 0.000000 89.965736 -31.038179 1393.832153
[bottomMouth]
49 -435.092926 615.759399 -0.000954 -0.000022 0.000016 73.527184 753.966492
50 -435.092926 615.759399 -0.000954 -0.000022 0.000016 73.527184 753.966492
51 -435.092926 615.759399 -0.000954 -0.000022 0.000016 73.527184 753.966492
[L_Mouth01]
49 554.440979 7.658243 838.222046 150.204178 23.759130 109.605339 1005.027161
50 554.440979 7.658243 838.222046 150.204178 23.759130 109.605339 1005.027161
51 554.440979 7.658243 838.222046 150.204178 23.759130 109.605339 1005.027161
[L_mouthFront]
49 551.629089 934.514771 339.150421 0.000081 2.804060 79.119301 1136.941284
50 551.629089 934.514771 339.150421 0.000081 2.804060 79.119301 1136.941284
51 551.629089 934.514771 339.150421 0.000081 2.804060 79.119301 1136.941284
[mouthGun]
49 55.332661 1627.420898 0.000000 0.000023 0.000009 -11.038128 1628.361328
50 55.332661 1627.420898 0.000000 0.000023 0.000009 -11.038128 1628.361328
51 55.332661 1627.420898 0.000000 0.000023 0.000009 -11.038128 1628.361328
[R_Mouth01]
49 554.442383 7.659197 -838.223938 29.795891 -23.759109 109.605331 1005.029541
50 554.442383 7.659197 -838.223938 29.795891 -23.759109 109.605331 1005.029541
51 554.442383 7.659197 -838.223938 29.795891 -23.759109 109.605331 1005.029541
[R_mouthFront]
49 551.629089 934.514282 -339.151367 0.000029 -2.803930 79.119133 1136.941162
50 551.629089 934.514282 -339.151367 0.000029 -2.803930 79.119133 1136.941162
51 551.629089 934.514282 -339.151367 0.000029 -2.803930 79.119133 1136.941162
[TopMouth]
49 461.269867 -56.106091 -0.008583 -0.000059 -0.000268 92.025169 464.669525
50 461.269867 -56.106091 -0.008583 -0.000059 -0.000268 92.025169 464.669525
51 461.269867 -56.106091 -0.008583 -0.000059 -0.000268 92.025169 464.669525
[weapon_bone]
49 -987.239868 1448.372803 0.001431 0.000000 89.965736 -31.038221 1752.833740
50 -987.239868 1448.372803 0.001431 0.000000 89.965736 -31.038221 1752.833740
51 -987.239868 1448.372803 0.001431 0.000000 89.965736 -31.038221 1752.833740
